<mxfile host="Electron" agent="Mozilla/5.0 (Windows NT 10.0; Win64; x64) AppleWebKit/537.36 (KHTML, like Gecko) draw.io/28.2.7 Chrome/138.0.7204.251 Electron/37.7.1 Safari/537.36" version="28.2.7">
  <diagram name="Page-1" id="2cW95Aaw8F3XUu_YPcVj">
    <mxGraphModel dx="872" dy="577" grid="1" gridSize="10" guides="1" tooltips="1" connect="1" arrows="1" fold="1" page="1" pageScale="1" pageWidth="850" pageHeight="1100" math="0" shadow="0">
      <root>
        <mxCell id="0" />
        <mxCell id="1" parent="0" />
        <mxCell id="nLjzUHx9w3R0jBtaQKZ0-15" style="edgeStyle=orthogonalEdgeStyle;rounded=0;orthogonalLoop=1;jettySize=auto;html=1;exitX=0.5;exitY=1;exitDx=0;exitDy=0;entryX=0;entryY=0.5;entryDx=0;entryDy=0;" edge="1" parent="1" source="nLjzUHx9w3R0jBtaQKZ0-2" target="nLjzUHx9w3R0jBtaQKZ0-7">
          <mxGeometry relative="1" as="geometry" />
        </mxCell>
        <mxCell id="nLjzUHx9w3R0jBtaQKZ0-16" style="edgeStyle=orthogonalEdgeStyle;rounded=0;orthogonalLoop=1;jettySize=auto;html=1;exitX=0.25;exitY=1;exitDx=0;exitDy=0;entryX=0;entryY=0.25;entryDx=0;entryDy=0;" edge="1" parent="1" source="nLjzUHx9w3R0jBtaQKZ0-2" target="nLjzUHx9w3R0jBtaQKZ0-8">
          <mxGeometry relative="1" as="geometry" />
        </mxCell>
        <mxCell id="nLjzUHx9w3R0jBtaQKZ0-24" style="edgeStyle=orthogonalEdgeStyle;rounded=0;orthogonalLoop=1;jettySize=auto;html=1;exitX=1;exitY=0.5;exitDx=0;exitDy=0;entryX=0;entryY=0.5;entryDx=0;entryDy=0;" edge="1" parent="1" source="nLjzUHx9w3R0jBtaQKZ0-2" target="nLjzUHx9w3R0jBtaQKZ0-4">
          <mxGeometry relative="1" as="geometry" />
        </mxCell>
        <mxCell id="nLjzUHx9w3R0jBtaQKZ0-2" value="&lt;b&gt;&lt;font style=&quot;font-size: 18px;&quot;&gt;User&lt;/font&gt;&lt;/b&gt;&lt;div&gt;-------------&lt;/div&gt;&lt;div&gt;&lt;div&gt;&lt;span style=&quot;background-color: rgb(255, 255, 255);&quot;&gt;&lt;font style=&quot;color: rgb(51, 51, 255);&quot;&gt;user_id (PK)&lt;/font&gt;&lt;/span&gt;&lt;/div&gt;&lt;div&gt;first_name&lt;/div&gt;&lt;div&gt;last_name&lt;/div&gt;&lt;div&gt;email (UNIQUE)&lt;/div&gt;&lt;div&gt;password_hash&lt;/div&gt;&lt;div&gt;phone_number&lt;/div&gt;&lt;div&gt;role&lt;/div&gt;&lt;div&gt;created_at&lt;/div&gt;&lt;/div&gt;" style="rounded=1;whiteSpace=wrap;html=1;" vertex="1" parent="1">
          <mxGeometry x="90" y="120" width="120" height="160" as="geometry" />
        </mxCell>
        <mxCell id="nLjzUHx9w3R0jBtaQKZ0-11" style="edgeStyle=orthogonalEdgeStyle;rounded=0;orthogonalLoop=1;jettySize=auto;html=1;exitX=1;exitY=0.5;exitDx=0;exitDy=0;entryX=0;entryY=0.5;entryDx=0;entryDy=0;" edge="1" parent="1" source="nLjzUHx9w3R0jBtaQKZ0-4" target="nLjzUHx9w3R0jBtaQKZ0-5">
          <mxGeometry relative="1" as="geometry" />
        </mxCell>
        <mxCell id="nLjzUHx9w3R0jBtaQKZ0-25" style="edgeStyle=orthogonalEdgeStyle;rounded=0;orthogonalLoop=1;jettySize=auto;html=1;exitX=0.5;exitY=1;exitDx=0;exitDy=0;entryX=0.5;entryY=0;entryDx=0;entryDy=0;" edge="1" parent="1" source="nLjzUHx9w3R0jBtaQKZ0-4" target="nLjzUHx9w3R0jBtaQKZ0-7">
          <mxGeometry relative="1" as="geometry" />
        </mxCell>
        <mxCell id="nLjzUHx9w3R0jBtaQKZ0-4" value="&lt;span style=&quot;font-size: 18px;&quot;&gt;&lt;b&gt;Properties&lt;/b&gt;&lt;/span&gt;&lt;br&gt;&lt;div&gt;-------------&lt;/div&gt;&lt;div&gt;&lt;div&gt;&lt;font style=&quot;color: rgb(51, 51, 255);&quot;&gt;property_id (PK)&lt;/font&gt;&lt;/div&gt;&lt;div&gt;&lt;font style=&quot;color: rgb(255, 0, 0);&quot;&gt;host_id (FK)&lt;/font&gt;&lt;/div&gt;&lt;div&gt;name&lt;/div&gt;&lt;div&gt;description&lt;/div&gt;&lt;div&gt;location&lt;/div&gt;&lt;div&gt;pricepernight&lt;/div&gt;&lt;div&gt;created_at&lt;/div&gt;&lt;div&gt;updated_a&lt;/div&gt;&lt;/div&gt;" style="rounded=1;whiteSpace=wrap;html=1;" vertex="1" parent="1">
          <mxGeometry x="260" y="120" width="120" height="160" as="geometry" />
        </mxCell>
        <mxCell id="nLjzUHx9w3R0jBtaQKZ0-13" style="edgeStyle=orthogonalEdgeStyle;rounded=0;orthogonalLoop=1;jettySize=auto;html=1;exitX=1;exitY=0.5;exitDx=0;exitDy=0;entryX=0;entryY=0.5;entryDx=0;entryDy=0;" edge="1" parent="1" source="nLjzUHx9w3R0jBtaQKZ0-5" target="nLjzUHx9w3R0jBtaQKZ0-6">
          <mxGeometry relative="1" as="geometry" />
        </mxCell>
        <mxCell id="nLjzUHx9w3R0jBtaQKZ0-5" value="&lt;span style=&quot;font-size: 18px;&quot;&gt;&lt;b&gt;Booking&lt;/b&gt;&lt;/span&gt;&lt;br&gt;&lt;div&gt;-------------&lt;/div&gt;&lt;div&gt;&lt;div&gt;&lt;font style=&quot;color: rgb(51, 51, 255);&quot;&gt;booking_id (PK)&lt;/font&gt;&lt;/div&gt;&lt;div&gt;&lt;font style=&quot;color: rgb(255, 0, 0);&quot;&gt;property_id (FK)&lt;/font&gt;&lt;/div&gt;&lt;div&gt;&lt;font style=&quot;color: rgb(255, 0, 0);&quot;&gt;user_id (FK)&lt;/font&gt;&lt;/div&gt;&lt;div&gt;start_date&lt;/div&gt;&lt;div&gt;end_date&lt;/div&gt;&lt;div&gt;total_price&lt;/div&gt;&lt;div&gt;status&lt;/div&gt;&lt;div&gt;created_at&lt;/div&gt;&lt;/div&gt;" style="rounded=1;whiteSpace=wrap;html=1;arcSize=18;" vertex="1" parent="1">
          <mxGeometry x="400" y="120" width="120" height="160" as="geometry" />
        </mxCell>
        <mxCell id="nLjzUHx9w3R0jBtaQKZ0-6" value="&lt;span style=&quot;font-size: 18px;&quot;&gt;&lt;b&gt;Payment&lt;/b&gt;&lt;/span&gt;&lt;br&gt;&lt;div&gt;-------------&lt;/div&gt;&lt;div&gt;&lt;div&gt;&lt;font style=&quot;color: rgb(51, 51, 255);&quot;&gt;payment_id (PK)&lt;/font&gt;&lt;/div&gt;&lt;div&gt;&lt;font style=&quot;color: rgb(255, 0, 0);&quot;&gt;booking_id (FK)&lt;/font&gt;&lt;/div&gt;&lt;div&gt;amount&lt;/div&gt;&lt;div&gt;payment_date&lt;/div&gt;&lt;div&gt;payment_method&lt;/div&gt;&lt;/div&gt;" style="rounded=1;whiteSpace=wrap;html=1;arcSize=18;" vertex="1" parent="1">
          <mxGeometry x="560" y="120" width="120" height="160" as="geometry" />
        </mxCell>
        <mxCell id="nLjzUHx9w3R0jBtaQKZ0-7" value="&lt;span style=&quot;font-size: 18px;&quot;&gt;&lt;b&gt;Review&lt;/b&gt;&lt;/span&gt;&lt;br&gt;&lt;div&gt;-------------&lt;/div&gt;&lt;div&gt;&lt;div&gt;&lt;font style=&quot;color: rgb(51, 51, 255);&quot;&gt;review_id (PK)&lt;/font&gt;&lt;/div&gt;&lt;div&gt;&lt;font style=&quot;color: rgb(255, 0, 0);&quot;&gt;property_id (FK)&lt;/font&gt;&lt;/div&gt;&lt;div&gt;&lt;font style=&quot;color: rgb(255, 0, 0);&quot;&gt;user_id (FK)&lt;/font&gt;&lt;/div&gt;&lt;div&gt;rating&lt;/div&gt;&lt;div&gt;comment&lt;/div&gt;&lt;div&gt;created_at&lt;/div&gt;&lt;/div&gt;" style="rounded=1;whiteSpace=wrap;html=1;arcSize=18;" vertex="1" parent="1">
          <mxGeometry x="320" y="320" width="120" height="130" as="geometry" />
        </mxCell>
        <mxCell id="nLjzUHx9w3R0jBtaQKZ0-8" value="&lt;span style=&quot;font-size: 18px;&quot;&gt;&lt;b&gt;Message&lt;/b&gt;&lt;/span&gt;&lt;br&gt;&lt;div&gt;-------------&lt;/div&gt;&lt;div&gt;&lt;div&gt;&lt;font style=&quot;color: rgb(51, 51, 255);&quot;&gt;message_id (PK&lt;/font&gt;)&lt;/div&gt;&lt;div&gt;sender_id (FK)&lt;/div&gt;&lt;div&gt;recipient_id (FK)&lt;/div&gt;&lt;div&gt;message_body&lt;/div&gt;&lt;div&gt;sent_at&lt;/div&gt;&lt;/div&gt;" style="rounded=1;whiteSpace=wrap;html=1;arcSize=18;" vertex="1" parent="1">
          <mxGeometry x="320" y="480" width="120" height="150" as="geometry" />
        </mxCell>
        <mxCell id="nLjzUHx9w3R0jBtaQKZ0-12" style="edgeStyle=orthogonalEdgeStyle;rounded=0;orthogonalLoop=1;jettySize=auto;html=1;exitX=0.5;exitY=0;exitDx=0;exitDy=0;entryX=0.667;entryY=0;entryDx=0;entryDy=0;entryPerimeter=0;" edge="1" parent="1" source="nLjzUHx9w3R0jBtaQKZ0-2" target="nLjzUHx9w3R0jBtaQKZ0-5">
          <mxGeometry relative="1" as="geometry" />
        </mxCell>
        <mxCell id="nLjzUHx9w3R0jBtaQKZ0-23" value="&lt;b&gt;&lt;font style=&quot;font-size: 24px;&quot;&gt;ALX Airbnb Database ER Diagram&lt;/font&gt;&lt;/b&gt;" style="text;html=1;whiteSpace=wrap;strokeColor=none;fillColor=none;align=center;verticalAlign=middle;rounded=0;" vertex="1" parent="1">
          <mxGeometry x="70" y="30" width="720" height="70" as="geometry" />
        </mxCell>
      </root>
    </mxGraphModel>
  </diagram>
</mxfile>
